<?xml version="1.0" standalone="no"?>
<!DOCTYPE svg PUBLIC "-//W3C//DTD SVG 20010904//EN"
 "http://www.w3.org/TR/2001/REC-SVG-20010904/DTD/svg10.dtd">
<svg version="1.0" xmlns="http://www.w3.org/2000/svg"
 width="180.000000pt" height="180.000000pt" viewBox="0 0 180.000000 180.000000"
 preserveAspectRatio="xMidYMid meet">
<metadata>
Created by potrace 1.11, written by Peter Selinger 2001-2013
</metadata>
<g transform="translate(0.000000,180.000000) scale(0.100000,-0.100000)"
fill="#000000" stroke="none">
<path d="M488 1318 c-225 -225 -408 -413 -408 -416 0 -4 184 -191 409 -416
373 -373 411 -408 427 -395 10 8 197 194 416 413 l399 400 -413 413 c-227 227
-415 413 -418 412 -3 -1 -188 -186 -412 -411z m460 271 l40 -40 -236 -235
-235 -235 -38 37 c-22 21 -39 41 -39 46 0 7 457 468 465 468 2 0 21 -18 43
-41z m147 -147 l20 -23 -299 -300 -300 -300 -103 103 c-57 56 -103 105 -103
109 0 10 68 79 77 79 4 0 35 -27 68 -60 32 -33 62 -60 65 -60 3 0 120 115 260
255 282 282 254 265 315 197z m139 -139 c6 -12 -77 -101 -355 -379 l-364 -364
-167 167 c-93 92 -168 172 -168 176 0 5 17 26 38 46 l37 37 133 -130 132 -131
322 322 322 322 30 -26 c17 -14 35 -32 40 -40z m230 -229 c91 -91 166 -168
166 -171 0 -3 -18 -23 -41 -44 l-41 -38 -128 129 -128 129 -324 -324 -324
-324 -42 42 -42 42 362 362 c200 200 366 363 369 363 4 0 81 -75 173 -166z
m-66 -197 l103 -103 -40 -42 -40 -42 -64 66 -64 65 -255 -255 c-141 -141 -260
-256 -265 -256 -5 0 -26 17 -46 38 l-37 38 297 297 c163 163 299 297 302 297
4 0 53 -46 109 -103z m-64 -196 l38 -38 -232 -232 c-127 -127 -234 -231 -238
-231 -5 0 -25 18 -46 39 l-38 39 232 231 c128 127 235 231 239 231 4 0 24 -17
45 -39z"/>
</g>
</svg>
